# xmcd CD database file
#
# Track frame offsets:
#	150
#	12768
#	35905
#	58407
#	82135
#	109621
#	123967
#	152514
#	176268
#	204140
#	225012
#	240507
#	254323
#	270622
#
# Disc length: 4024 seconds
#
# Revision: 0
# Processed by: cddbd v1.5.2PL0 Copyright (c) Steve Scherf et al.
# Submitted via: CDex 1.51
#
DISCID=a80fb60e
DTITLE=Roberta Gambarini - Lush Life
DYEAR=2006
DGENRE=Jazz
TTITLE0=You are there
TTITLE1=I'll be tried of you
TTITLE2=When lights are low
TTITLE3=Deep purple
TTITLE4=Reminiscing
TTITLE5=Suppertime
TTITLE6=Just squeeze me
TTITLE7=Something to live for
TTITLE8=Startdust
TTITLE9=Lush life
TTITLE10=Skylark - Live
TTITLE11=Body and soul - Live
TTITLE12=Cool breeze - Live
TTITLE13=Lush life - Live
EXTD=YEAR: 2006
EXTT0=
EXTT1=
EXTT2=
EXTT3=
EXTT4=
EXTT5=
EXTT6=
EXTT7=
EXTT8=
EXTT9=
EXTT10=
EXTT11=
EXTT12=
EXTT13=
PLAYORDER=
